<?xml version="1.0" encoding="iso-8859-1"?>
<!-- Generator: Adobe Illustrator 19.0.0, SVG Export Plug-In . SVG Version: 6.00 Build 0)  -->
<svg version="1.1" id="Capa_1" xmlns="http://www.w3.org/2000/svg" xmlns:xlink="http://www.w3.org/1999/xlink" x="0px" y="0px"
	 viewBox="0 0 468.293 468.293" style="enable-background:new 0 0 468.293 468.293;" xml:space="preserve">
<polygon style="fill:#E1E6E9;" points="234.146,114.829 172.977,16.269 183.395,10.502 234.146,90.25 284.897,10.502 
	295.315,16.269 "/>
<path style="fill:#64798A;" d="M234.146,83.842c-13.151,0-23.812,10.661-23.812,23.812h47.623
	C257.958,94.503,247.297,83.842,234.146,83.842z"/>
<path style="fill:#3A556A;" d="M40.676,414.508v35.925c0,9.863,7.996,17.859,17.859,17.859h351.223
	c9.863,0,17.859-7.996,17.859-17.859v-35.925H40.676z"/>
<path style="fill:#64798A;" d="M444.894,441.018H23.399c-6.897,0-12.488-5.591-12.488-12.488V132.047
	c0-6.897,5.591-12.488,12.488-12.488h421.494c6.897,0,12.488,5.591,12.488,12.488V428.53
	C457.381,435.427,451.79,441.018,444.894,441.018z"/>
<path style="fill:#EBF0F3;" d="M338.318,167.195v226.212c0,9.882-7.977,17.859-17.859,17.859H58.53
	c-9.882,0-17.859-7.977-17.859-17.859V167.195c0-9.881,7.977-17.859,17.859-17.859h261.929
	C330.341,149.336,338.318,157.314,338.318,167.195z"/>
<rect x="159.738" y="149.329" style="fill:#27A2DB;" width="59.529" height="261.932"/>
<rect x="100.233" y="149.298" style="fill:#44C4A1;" width="59.529" height="261.932"/>
<path style="fill:#FCD462;" d="M100.2,149.336v261.929H58.53c-9.882,0-17.859-7.977-17.859-17.859V167.195
	c0-9.881,7.977-17.859,17.859-17.859H100.2z"/>
<rect x="219.242" y="149.348" style="fill:#E56353;" width="59.529" height="261.932"/>
<path style="fill:#EBF0F3;" d="M338.318,167.195v226.212c0,9.882-7.977,17.859-17.859,17.859h-41.671V149.336h41.671
	C330.341,149.336,338.318,157.314,338.318,167.195z"/>
<path style="fill:#3A556A;" d="M433.565,214.884c0,17.264-12.263,31.67-28.514,35.004c-2.322,0.476-4.762,0.714-7.203,0.714
	c-2.441,0-4.881-0.238-7.203-0.714c-16.252-3.334-28.515-17.74-28.515-35.004c0-17.323,12.263-31.669,28.515-35.003
	c2.321-0.477,4.762-0.715,7.203-0.715c2.441,0,4.881,0.238,7.203,0.715C421.302,183.215,433.565,197.561,433.565,214.884z"/>
<path style="fill:#64798A;" d="M382.164,191.073l39.496,39.497c-1.041,1.578-2.284,3.089-3.661,4.467
	c-1.377,1.377-2.888,2.62-4.466,3.661L374.036,199.2c1.041-1.579,2.283-3.09,3.66-4.467
	C379.074,193.356,380.585,192.113,382.164,191.073z"/>
<g>
	<rect x="362.146" y="292.152" style="fill:#D5D6DB;" width="71.437" height="8.929"/>
	<rect x="362.146" y="318.939" style="fill:#D5D6DB;" width="71.437" height="8.929"/>
	<rect x="362.146" y="345.719" style="fill:#D5D6DB;" width="71.437" height="8.929"/>
	<rect x="362.146" y="372.511" style="fill:#D5D6DB;" width="71.437" height="8.929"/>
</g>
<path style="fill:#3A556A;" d="M293.676,119.559H174.617v-5.371c0-6.897,5.591-12.488,12.488-12.488h94.083
	c6.897,0,12.488,5.591,12.488,12.488V119.559z"/>
<g>
	<circle style="fill:#64798A;" cx="289.355" cy="13.393" r="13.393"/>
	<circle style="fill:#64798A;" cx="178.95" cy="13.393" r="13.393"/>
</g>
<g>
</g>
<g>
</g>
<g>
</g>
<g>
</g>
<g>
</g>
<g>
</g>
<g>
</g>
<g>
</g>
<g>
</g>
<g>
</g>
<g>
</g>
<g>
</g>
<g>
</g>
<g>
</g>
<g>
</g>
</svg>
